# xmcd CD database file
#
# Track frame offsets:
#	150
#	14314
#	27232
#	41791
#	53236
#	67661
#	84657
#	106129
#	119014
#	135671
#	148530
#	161787
#	179012
#	190369
#	206204
#	220046
#	234113
#	246429
#	259731
#
# Disc length: 3685 seconds
#
# Revision: 0
# Processed by: cddbd v1.5.2PL0 Copyright (c) Steve Scherf et al.
# Submitted via: CDex 1.70beta2
#
DISCID=170e6313
DTITLE=Glenn Keener - In The Beginning
DYEAR=1999
DGENRE=Country
TTITLE0=Cafe Mozart Waltz
TTITLE1=Caravan
TTITLE2=Blue Spanish Eyes
TTITLE3=The Lonely Bull
TTITLE4=Yesterday
TTITLE5=Big Boss Man
TTITLE6=Stranger On The Shore
TTITLE7=Margaritaville
TTITLE8=For The Good Times
TTITLE9=Tree Top Waltz
TTITLE10=Beer Barrell Polka
TTITLE11=Let It Be Me
TTITLE12=Mexico
TTITLE13=Maria Elena
TTITLE14=Forty Miles Of Bad Road
TTITLE15=Apache
TTITLE16=Windy And Warm
TTITLE17=Raunchy
TTITLE18=Nashville Jam
EXTD=YEAR: 1999
EXTT0=
EXTT1=
EXTT2=
EXTT3=
EXTT4=
EXTT5=
EXTT6=
EXTT7=
EXTT8=
EXTT9=
EXTT10=
EXTT11=
EXTT12=
EXTT13=
EXTT14=
EXTT15=
EXTT16=
EXTT17=
EXTT18=
PLAYORDER=
